<?xml version="1.0" encoding="UTF-8" standalone="no"?>
<!-- Created with Inkscape (http://www.inkscape.org/) -->

<svg
   width="500mm"
   height="500mm"
   viewBox="0 0 500 500"
   version="1.1"
   id="svg1"
   xmlns="http://www.w3.org/2000/svg"
   xmlns:svg="http://www.w3.org/2000/svg">
  <defs
     id="defs1" />
  <g
     id="layer1">
    <g
       id="g2"
       transform="translate(3.3359336,5.3856115)">
      <path
         id="path1"
         style="opacity:1;fill:#444f5a;fill-opacity:1;stroke-width:7.16012"
         d="m 447.26521,60.09814 c -3.28449,0.03578 -6.85604,0.586111 -10.68462,1.681035 C 391.83308,74.576359 323.64078,91.056085 319.60478,92.030558 345.1952,63.946281 348.8279,60.327087 301.64567,60.211312 252.6723,60.091145 181.52432,89.477226 181.52432,89.477226 c 0,0 -1.11999,0.546117 -1.3038,0.613399 C 109.59169,117.14162 64.598677,184.63671 64.396069,260.26835 c 2.1e-5,21.07987 3.573608,41.32187 10.137426,60.16408 3.927111,11.27324 16.976335,15.63522 27.616605,10.20759 86.08749,-43.91349 258.35594,-137.80656 323.55673,-217.50481 61.69904,-75.417865 -42.75428,167.86683 -296.22949,259.81348 -11.22806,4.07291 -14.20367,14.41952 -5.38901,22.47024 32.52291,29.70423 75.78239,47.84196 123.3007,47.84187 47.76576,-0.13036 93.08096,-18.9204 126.77521,-51.54569 34.2633,-29.04688 77.74888,-88.41996 72.19198,-96.92639 -1.39402,-2.13392 -7.11709,-2.62806 -13.97073,-2.38538 C 454.61721,231.53168 475.24028,147.30168 471.39345,86.135311 470.3439,69.447077 461.49794,59.943117 447.26521,60.09814 Z"
         transform="matrix(1.0009066,0,0,1.0009066,11.114513,-7.2923196)" />
      <path
         id="path15"
         style="fill:#444f5a;fill-opacity:1;stroke-width:4"
         d="m 109.92662,332.15595 c -9.34151,0.16794 -20.594492,5.70235 -34.530705,21.12843 -17.041042,18.86284 -24.629825,29.76331 -28.08163,36.22579 -2.098452,3.92873 0.539815,6.19096 4.172244,3.60481 13.28038,-9.45509 30.232936,-30.39444 41.578591,-33.79583 0.62537,-0.18749 1.183966,-0.34477 1.746147,-0.50333 0.08741,-0.0246 0.185341,-0.0535 0.271301,-0.0775 0.608607,-0.15171 1.233641,-0.22756 1.860869,-0.22583 v -5.1e-4 c 4.200983,0.0417 7.572683,3.48123 7.530803,7.68222 -0.0334,2.66383 -1.45788,5.11608 -3.75532,6.46472 -0.11907,0.0612 -0.23453,0.12031 -0.35554,0.18241 -12.079135,6.19607 -33.681842,16.82039 -46.94517,23.99707 -3.838842,2.07716 -4.593744,6.84858 -0.63276,8.59114 3.918202,1.72373 9.389611,2.34682 16.792215,-0.26511 18.885248,-6.66346 22.789741,-1.84586 33.570565,-5.33198 10.805,-3.49394 23.95896,-10.14497 30.40457,-15.36761 5.85171,-4.74143 8.60834,-29.16354 1.59721,-39.75393 -6.35608,-9.60093 -14.63634,-12.74528 -25.22339,-12.55495 z"
         transform="matrix(1.1809265,0,0,1.1809265,-45.068509,-61.022611)" />
    </g>
    <path
       style="font-weight:bold;font-size:533.333px;font-family:Comfortaa;-inkscape-font-specification:'Comfortaa Bold';letter-spacing:25px;word-spacing:0px;baseline-shift:baseline;white-space:pre;fill:#ff9999;stroke:#ff9999;stroke-width:15.1179"
       d="m 231.17436,944.52705 c 83.73328,0 147.19991,-63.99996 147.19991,-148.26658 0,-84.26661 -58.66663,-147.73324 -136.53325,-147.73324 -42.13331,0 -78.39995,18.66665 -102.93327,48.5333 V 553.06062 c 0,-15.99999 -11.19999,-27.19998 -27.19998,-27.19998 -15.999994,0 -27.199987,11.19999 -27.199987,27.19998 v 243.19985 c 0.533333,84.26662 63.466627,148.26658 146.666577,148.26658 z m 0,-47.99997 c -53.86663,0 -94.39994,-43.19998 -94.39994,-100.26661 0,-57.06663 40.53331,-99.73327 94.39994,-99.73327 53.86663,0 94.93328,42.66664 94.93328,99.73327 0,57.06663 -41.06665,100.26661 -94.93328,100.26661 z"
       id="text1"
       transform="matrix(0.77960761,0,0,0.77960761,86.942084,-300.49762)"
       aria-label="b" />
  </g>
</svg>
