<svg xmlns="http://www.w3.org/2000/svg" version="1.1" xmlns:xlink="http://www.w3.org/1999/xlink" xmlns:svgjs="http://svgjs.dev/svgjs" width="1440" height="560" preserveAspectRatio="none" viewBox="0 0 1440 560"><g mask="url(&quot;#SvgjsMask1051&quot;)" fill="none"><path d="M -1133.2772212220766,264 C -989.28,309.6 -701.28,511.2 -413.2772212220766,492 C -125.28,472.8 18.72,167 306.7227787779234,168 C 594.72,169 800.07,517.6 1026.7227787779234,497 C 1253.38,476.4 1357.34,151.4 1440,65" stroke="rgba(255, 153, 153, 1)" stroke-width="2"></path><path d="M -184.70866772984152,472 C -40.71,389 247.29,73 535.2913322701585,57 C 823.29,41 967.29,384.4 1255.2913322701584,392 C 1543.29,399.6 1938.35,106.8 1975.2913322701584,95 C 2012.23,83.2 1547.06,285.4 1440,333" stroke="rgba(255, 153, 153, 1)" stroke-width="2"></path><path d="M -1002.125819701431,69 C -858.13,117.8 -570.13,300.6 -282.1258197014311,313 C 5.87,325.4 149.87,109.4 437.8741802985689,131 C 725.87,152.6 957.45,435.4 1157.874180298569,421 C 1358.3,406.6 1383.57,131.4 1440,59" stroke="rgba(255, 153, 153, 1)" stroke-width="2"></path><path d="M -920.5701943194421,267 C -776.57,280.6 -488.57,359.8 -200.57019431944204,335 C 87.43,310.2 231.43,148.2 519.4298056805579,143 C 807.43,137.8 1055.32,284.6 1239.429805680558,309 C 1423.54,333.4 1399.89,273.8 1440,265" stroke="rgba(255, 153, 153, 1)" stroke-width="2"></path></g><defs><mask id="SvgjsMask1051"><rect width="1440" height="560" fill="#ffffff"></rect></mask></defs></svg>