<svg xmlns="http://www.w3.org/2000/svg" version="1.1" xmlns:xlink="http://www.w3.org/1999/xlink" xmlns:svgjs="http://svgjs.dev/svgjs" width="1440" height="560" preserveAspectRatio="none" viewBox="0 0 1440 560"><g mask="url(&quot;#SvgjsMask1244&quot;)" fill="none"><circle r="46.666666666666664" cx="324.71" cy="154.71" stroke="rgba(68, 79, 90, 1)" stroke-width="2.52" stroke-dasharray="2, 2"></circle><circle r="46.666666666666664" cx="1382.02" cy="436.75" fill="rgba(255, 221, 221, 1)"></circle><path d="M765.22 291.28L752.47 290.01 750.91 277.3 738.17 276.04 736.6 263.33 723.86 262.06 722.3 249.35M770.81 285.55L758.06 284.29 756.5 271.58 743.76 270.31 742.19 257.6 729.45 256.34 727.89 243.63" stroke="rgba(255, 153, 153, 1)" stroke-width="2.06" stroke-dasharray="2, 2"></path><circle r="81.48663393771662" cx="805.72" cy="208.6" fill="rgba(68, 79, 90, 1)"></circle><circle r="69.79266621622479" cx="939.55" cy="274.42" fill="rgba(255, 221, 221, 1)"></circle><rect width="312" height="312" clip-path="url(&quot;#SvgjsClipPath1245&quot;)" x="707.02" y="-134.31" fill="url(&quot;#SvgjsPattern1246&quot;)" transform="rotate(271.3, 863.02, 21.69)"></rect><path d="M90.44 157.12L97.97 146.76 109.73 151.83 117.26 141.48 129.02 146.55 136.55 136.19 148.31 141.26M92.56 164.84L100.09 154.48 111.84 159.55 119.37 149.19 131.13 154.26 138.66 143.9 150.42 148.97" stroke="rgba(68, 79, 90, 1)" stroke-width="1.45" stroke-dasharray="2, 2"></path><rect width="193.48" height="193.48" clip-path="url(&quot;#SvgjsClipPath1247&quot;)" x="743.72" y="359.38" fill="url(&quot;#SvgjsPattern1248&quot;)" transform="rotate(238.04, 840.46, 456.12)"></rect><circle r="54.36958866456973" cx="306.33" cy="215.77" stroke="rgba(255, 153, 153, 1)" stroke-width="1.57"></circle><rect width="105.4" height="105.4" clip-path="url(&quot;#SvgjsClipPath1249&quot;)" x="92.18" y="425.98" fill="url(&quot;#SvgjsPattern1250&quot;)" transform="rotate(30.24, 144.88, 478.68)"></rect><rect width="107.4" height="107.4" clip-path="url(&quot;#SvgjsClipPath1251&quot;)" x="-41.73" y="168.14" fill="url(&quot;#SvgjsPattern1252&quot;)" transform="rotate(333.86, 11.97, 221.84)"></rect><circle r="46.666666666666664" cx="704.88" cy="190.6" stroke="rgba(68, 79, 90, 1)" stroke-width="1.7" stroke-dasharray="3, 3"></circle></g><defs><mask id="SvgjsMask1244"><rect width="1440" height="560" fill="#ffffff"></rect></mask><pattern x="0" y="0" width="6" height="6" patternUnits="userSpaceOnUse" id="SvgjsPattern1246"><path d="M0 6L3 0L6 6" stroke="rgba(255, 153, 153, 1)" fill="none"></path></pattern><clipPath id="SvgjsClipPath1245"><circle r="78" cx="863.02" cy="21.69"></circle></clipPath><pattern x="0" y="0" width="193.48" height="13.82" patternUnits="userSpaceOnUse" id="SvgjsPattern1248"><rect width="193.48" height="6.91" x="0" y="0" fill="rgba(255, 221, 221, 1)"></rect><rect width="193.48" height="6.91" x="0" y="6.91" fill="rgba(0, 0, 0, 0)"></rect></pattern><clipPath id="SvgjsClipPath1247"><circle r="48.37" cx="840.46" cy="456.12"></circle></clipPath><pattern x="0" y="0" width="105.4" height="10.54" patternUnits="userSpaceOnUse" id="SvgjsPattern1250"><rect width="105.4" height="5.27" x="0" y="0" fill="rgba(255, 221, 221, 1)"></rect><rect width="105.4" height="5.27" x="0" y="5.27" fill="rgba(0, 0, 0, 0)"></rect></pattern><clipPath id="SvgjsClipPath1249"><circle r="26.35" cx="144.88" cy="478.68"></circle></clipPath><pattern x="0" y="0" width="10.74" height="10.74" patternUnits="userSpaceOnUse" id="SvgjsPattern1252"><path d="M5.37 1L5.37 9.74M1 5.37L9.74 5.37" stroke="rgba(255, 153, 153, 1)" fill="none" stroke-width="2.96"></path></pattern><clipPath id="SvgjsClipPath1251"><circle r="26.85" cx="11.97" cy="221.84"></circle></clipPath></defs></svg>